<svg width="10" height="10" viewBox="0 0 10 10" fill="none" xmlns="http://www.w3.org/2000/svg">
<path fill-rule="evenodd" clip-rule="evenodd" d="M9.78011 9.77999C10.0734 9.48667 10.0734 9.0111 9.78011 8.71777L6.06228 4.99994L9.77999 1.28223C10.0733 0.988907 10.0733 0.513334 9.77999 0.22001C9.48667 -0.073315 9.0111 -0.0733147 8.71777 0.22001L5.00006 3.93772L1.28234 0.219993C0.989011 -0.0733312 0.513438 -0.0733311 0.220113 0.219993C-0.0732111 0.513318 -0.0732113 0.988891 0.220113 1.28222L3.93784 4.99994L0.219993 8.71779C-0.0733311 9.01111 -0.0733311 9.48668 0.219993 9.78001C0.513318 10.0733 0.988891 10.0733 1.28222 9.78001L5.00006 6.06216L8.71789 9.77999C9.01122 10.0733 9.48679 10.0733 9.78011 9.77999Z" fill="#FF1515"/>
</svg>
