<svg width="12" height="12" viewBox="0 0 12 12" fill="none" xmlns="http://www.w3.org/2000/svg">
<rect x="6.60004" y="3.59998" width="3.60003" height="1.20001" rx="0.600005" transform="rotate(90 6.60004 3.59998)" fill="#FF1515"/>
<circle cx="6.00003" cy="8.28003" r="0.600005" fill="#FF1515"/>
<path d="M11.2783 5.75C11.3676 5.9047 11.3676 6.0953 11.2783 6.25L8.85566 10.4462C8.76635 10.6009 8.60128 10.6962 8.42265 10.6962L3.57735 10.6962C3.39872 10.6962 3.23365 10.6009 3.14434 10.4462L0.721689 6.25C0.632373 6.0953 0.632373 5.9047 0.721689 5.75L3.14434 1.55385C3.23365 1.39915 3.39872 1.30385 3.57735 1.30385L8.42265 1.30385C8.60128 1.30385 8.76635 1.39915 8.85566 1.55385L11.2783 5.75Z" stroke="#FF1515"/>
</svg>
