<svg width="24" height="24" viewBox="0 0 24 24" fill="none" xmlns="http://www.w3.org/2000/svg">
<rect x="12.6" y="9.59998" width="3.60003" height="1.20001" rx="0.600005" transform="rotate(90 12.6 9.59998)" fill="#FF1515"/>
<circle cx="12" cy="14.28" r="0.600005" fill="#FF1515"/>
<path d="M17.2783 12.25L14.8557 16.4462C14.7663 16.6009 14.6013 16.6962 14.4226 16.6962L9.57735 16.6962C9.39872 16.6962 9.23365 16.6009 9.14434 16.4462L6.72169 12.25C6.63237 12.0953 6.63237 11.9047 6.72169 11.75L9.14434 7.55385C9.23365 7.39915 9.39872 7.30385 9.57735 7.30385L14.4227 7.30385C14.6013 7.30385 14.7663 7.39915 14.8557 7.55385L17.2783 11.75C17.3676 11.9047 17.3676 12.0953 17.2783 12.25Z" stroke="#FF1515"/>
</svg>
