<svg width="359" height="70" viewBox="0 0 359 70" fill="none" xmlns="http://www.w3.org/2000/svg">
<path d="M84.12 22.768V38.384H106.584V43.888H84.12V62H77.72V17.2H109.336V22.768H84.12ZM130.915 62.384C127.544 62.384 124.515 61.6373 121.827 60.144C119.139 58.6507 117.027 56.6027 115.491 54C113.997 51.3547 113.251 48.368 113.251 45.04C113.251 41.712 113.997 38.7467 115.491 36.144C117.027 33.4987 119.139 31.4507 121.827 30C124.515 28.5067 127.544 27.76 130.915 27.76C134.285 27.76 137.293 28.5067 139.939 30C142.627 31.4507 144.717 33.4987 146.211 36.144C147.747 38.7467 148.515 41.712 148.515 45.04C148.515 48.368 147.747 51.3547 146.211 54C144.717 56.6027 142.627 58.6507 139.939 60.144C137.293 61.6373 134.285 62.384 130.915 62.384ZM130.915 57.008C133.091 57.008 135.032 56.5173 136.739 55.536C138.488 54.512 139.853 53.104 140.835 51.312C141.816 49.4773 142.307 47.3867 142.307 45.04C142.307 42.6933 141.816 40.624 140.835 38.832C139.853 36.9973 138.488 35.5893 136.739 34.608C135.032 33.6267 133.091 33.136 130.915 33.136C128.739 33.136 126.776 33.6267 125.027 34.608C123.32 35.5893 121.955 36.9973 120.931 38.832C119.949 40.624 119.459 42.6933 119.459 45.04C119.459 47.3867 119.949 49.4773 120.931 51.312C121.955 53.104 123.32 54.512 125.027 55.536C126.776 56.5173 128.739 57.008 130.915 57.008ZM162.9 33.776C163.966 31.8133 165.545 30.32 167.635 29.296C169.726 28.272 172.265 27.76 175.252 27.76V33.712C174.91 33.6693 174.441 33.648 173.844 33.648C170.516 33.648 167.892 34.6507 165.972 36.656C164.094 38.6187 163.156 41.4347 163.156 45.104V62H157.012V28.08H162.9V33.776ZM200.936 27.76C205.245 27.76 208.659 29.0187 211.176 31.536C213.736 34.0107 215.016 37.6587 215.016 42.48V62H208.872V43.184C208.872 39.8987 208.083 37.424 206.504 35.76C204.925 34.096 202.664 33.264 199.72 33.264C196.392 33.264 193.768 34.2453 191.848 36.208C189.928 38.128 188.968 40.9013 188.968 44.528V62H182.824V28.08H188.712V33.2C189.949 31.4507 191.613 30.1067 193.704 29.168C195.837 28.2293 198.248 27.76 200.936 27.76ZM241.102 62.384C237.731 62.384 234.702 61.6373 232.014 60.144C229.326 58.6507 227.214 56.6027 225.678 54C224.185 51.3547 223.438 48.368 223.438 45.04C223.438 41.712 224.185 38.7467 225.678 36.144C227.214 33.4987 229.326 31.4507 232.014 30C234.702 28.5067 237.731 27.76 241.102 27.76C244.473 27.76 247.481 28.5067 250.126 30C252.814 31.4507 254.905 33.4987 256.398 36.144C257.934 38.7467 258.702 41.712 258.702 45.04C258.702 48.368 257.934 51.3547 256.398 54C254.905 56.6027 252.814 58.6507 250.126 60.144C247.481 61.6373 244.473 62.384 241.102 62.384ZM241.102 57.008C243.278 57.008 245.219 56.5173 246.926 55.536C248.675 54.512 250.041 53.104 251.022 51.312C252.003 49.4773 252.494 47.3867 252.494 45.04C252.494 42.6933 252.003 40.624 251.022 38.832C250.041 36.9973 248.675 35.5893 246.926 34.608C245.219 33.6267 243.278 33.136 241.102 33.136C238.926 33.136 236.963 33.6267 235.214 34.608C233.507 35.5893 232.142 36.9973 231.118 38.832C230.137 40.624 229.646 42.6933 229.646 45.04C229.646 47.3867 230.137 49.4773 231.118 51.312C232.142 53.104 233.507 54.512 235.214 55.536C236.963 56.5173 238.926 57.008 241.102 57.008ZM286.271 60.016C285.375 60.784 284.266 61.3813 282.943 61.808C281.62 62.192 280.255 62.384 278.847 62.384C275.434 62.384 272.788 61.4667 270.911 59.632C269.034 57.7973 268.095 55.1733 268.095 51.76V33.136H262.335V28.08H268.095V20.656H274.239V28.08H283.967V33.136H274.239V51.504C274.239 53.3387 274.687 54.7467 275.583 55.728C276.522 56.7093 277.844 57.2 279.551 57.2C281.428 57.2 283.028 56.6667 284.351 55.6L286.271 60.016ZM323.23 45.232C323.23 45.7013 323.187 46.32 323.102 47.088H295.582C295.966 50.0747 297.267 52.4853 299.486 54.32C301.747 56.112 304.542 57.008 307.87 57.008C311.923 57.008 315.187 55.6427 317.662 52.912L321.054 56.88C319.518 58.672 317.598 60.0373 315.294 60.976C313.033 61.9147 310.494 62.384 307.678 62.384C304.094 62.384 300.915 61.6587 298.142 60.208C295.369 58.7147 293.214 56.6453 291.678 54C290.185 51.3547 289.438 48.368 289.438 45.04C289.438 41.7547 290.163 38.7893 291.614 36.144C293.107 33.4987 295.134 31.4507 297.694 30C300.297 28.5067 303.219 27.76 306.462 27.76C309.705 27.76 312.585 28.5067 315.102 30C317.662 31.4507 319.646 33.4987 321.054 36.144C322.505 38.7893 323.23 41.8187 323.23 45.232ZM306.462 32.944C303.518 32.944 301.043 33.84 299.038 35.632C297.075 37.424 295.923 39.7707 295.582 42.672H317.342C317.001 39.8133 315.827 37.488 313.822 35.696C311.859 33.8613 309.406 32.944 306.462 32.944ZM341.49 62.384C338.716 62.384 336.05 62.0213 333.49 61.296C330.93 60.528 328.924 59.568 327.474 58.416L330.034 53.552C331.527 54.6187 333.34 55.472 335.474 56.112C337.607 56.752 339.762 57.072 341.938 57.072C347.314 57.072 350.002 55.536 350.002 52.464C350.002 51.44 349.639 50.6293 348.914 50.032C348.188 49.4347 347.271 49.008 346.162 48.752C345.095 48.4533 343.559 48.1333 341.554 47.792C338.823 47.3653 336.583 46.8747 334.834 46.32C333.127 45.7653 331.655 44.8267 330.418 43.504C329.18 42.1813 328.562 40.3253 328.562 37.936C328.562 34.864 329.842 32.4107 332.402 30.576C334.962 28.6987 338.396 27.76 342.706 27.76C344.967 27.76 347.228 28.0373 349.49 28.592C351.751 29.1467 353.607 29.8933 355.058 30.832L352.434 35.696C349.66 33.904 346.396 33.008 342.642 33.008C340.039 33.008 338.055 33.4347 336.69 34.288C335.324 35.1413 334.642 36.272 334.642 37.68C334.642 38.7893 335.026 39.664 335.794 40.304C336.562 40.944 337.5 41.4133 338.61 41.712C339.762 42.0107 341.362 42.352 343.41 42.736C346.14 43.2053 348.338 43.7173 350.002 44.272C351.708 44.784 353.159 45.68 354.354 46.96C355.548 48.24 356.146 50.032 356.146 52.336C356.146 55.408 354.823 57.8613 352.178 59.696C349.575 61.488 346.012 62.384 341.49 62.384Z" fill="#F9F9F9"/>
<path fill-rule="evenodd" clip-rule="evenodd" d="M13.6605 49.3498C18.5106 49.3498 22.4423 45.4343 22.4423 40.6042C22.4423 35.7742 18.5106 31.8587 13.6605 31.8587C8.8105 31.8587 4.87876 35.7742 4.87876 40.6042C4.87876 45.4343 8.8105 49.3498 13.6605 49.3498ZM13.6605 54.2085C21.205 54.2085 27.3211 48.1177 27.3211 40.6042C27.3211 33.0908 21.205 27 13.6605 27C6.11603 27 0 33.0908 0 40.6042C0 48.1177 6.11603 54.2085 13.6605 54.2085Z" fill="#F9F9F9"/>
<path fill-rule="evenodd" clip-rule="evenodd" d="M18.5416 31.3883C21.3128 29.3235 24.6784 28.2031 28.1393 28.193C31.6002 28.1829 34.9723 29.2837 37.7556 31.3323L34.8558 35.2396C32.916 33.8118 30.5657 33.0446 28.1536 33.0516C25.7414 33.0586 23.3957 33.8396 21.4643 35.2786L18.5416 31.3883Z" fill="#F9F9F9"/>
<path fill-rule="evenodd" clip-rule="evenodd" d="M42.9331 49.3498C47.7831 49.3498 51.7149 45.4343 51.7149 40.6042C51.7149 35.7742 47.7831 31.8587 42.9331 31.8587C38.0831 31.8587 34.1513 35.7742 34.1513 40.6042C34.1513 45.4343 38.0831 49.3498 42.9331 49.3498ZM42.9331 54.2085C50.4776 54.2085 56.5936 48.1177 56.5936 40.6042C56.5936 33.0908 50.4776 27 42.9331 27C35.3886 27 29.2726 33.0908 29.2726 40.6042C29.2726 48.1177 35.3886 54.2085 42.9331 54.2085Z" fill="#F9F9F9"/>
</svg>
