<svg width="24" height="24" viewBox="0 0 24 24" fill="none" xmlns="http://www.w3.org/2000/svg">
<path d="M11.8098 7.58541C11.8697 7.40115 12.1303 7.40115 12.1902 7.58541L13.0777 10.3167C13.1044 10.3991 13.1812 10.4549 13.2679 10.4549H16.1397C16.3335 10.4549 16.414 10.7028 16.2573 10.8167L13.9339 12.5048C13.8638 12.5557 13.8345 12.646 13.8613 12.7284L14.7487 15.4597C14.8086 15.6439 14.5977 15.7972 14.4409 15.6833L12.1176 13.9952C12.0475 13.9443 11.9525 13.9443 11.8824 13.9952L9.55905 15.6833C9.40231 15.7972 9.19141 15.6439 9.25129 15.4597L10.1387 12.7284C10.1655 12.646 10.1362 12.5557 10.0661 12.5048L7.7427 10.8167C7.58595 10.7028 7.66651 10.4549 7.86025 10.4549H10.7321C10.8188 10.4549 10.8956 10.3991 10.9223 10.3167L11.8098 7.58541Z" fill="#15C7FF"/>
</svg>
