<svg width="12" height="12" viewBox="0 0 12 12" fill="none" xmlns="http://www.w3.org/2000/svg">
<path d="M6.00003 8.88007C5.66866 8.88007 5.40002 8.61143 5.40002 8.28006L5.40002 5.88004C5.40002 5.54867 5.66866 5.28003 6.00003 5.28003V5.28003C6.3314 5.28003 6.60004 5.54867 6.60004 5.88004L6.60003 8.28006C6.60003 8.61143 6.3314 8.88007 6.00003 8.88007V8.88007Z" fill="#1581FF"/>
<path d="M5.40003 4.20001C5.40003 3.86864 5.66866 3.60001 6.00003 3.60001C6.33141 3.60001 6.60004 3.86864 6.60004 4.20001C6.60004 4.53139 6.33141 4.80002 6.00003 4.80002C5.66866 4.80002 5.40003 4.53139 5.40003 4.20001Z" fill="#1581FF"/>
<path fill-rule="evenodd" clip-rule="evenodd" d="M9.63399 3.90191C8.88442 2.60362 7.49916 1.80383 6.00001 1.80383C4.50087 1.80383 3.11561 2.60361 2.36604 3.90191C1.61647 5.2002 1.61647 6.79977 2.36604 8.09806C3.11561 9.39636 4.50087 10.1961 6.00001 10.1961C7.49916 10.1961 8.88442 9.39636 9.63399 8.09806C10.3836 6.79977 10.3836 5.2002 9.63399 3.90191ZM10.5 8.59806C11.4282 6.99037 11.4282 5.0096 10.5 3.40191C9.57181 1.79421 7.85642 0.803833 6.00001 0.803833C4.14361 0.803833 2.42822 1.79421 1.50002 3.40191C0.571812 5.0096 0.571811 6.99037 1.50001 8.59806C2.42822 10.2058 4.14361 11.1961 6.00001 11.1961C7.85642 11.1961 9.57181 10.2058 10.5 8.59806Z" fill="#1581FF"/>
</svg>
