<svg width="24" height="24" viewBox="0 0 24 24" fill="none" xmlns="http://www.w3.org/2000/svg">
<path d="M12.1962 15.0762C11.8648 15.0762 11.5962 14.8076 11.5962 14.4762L11.5962 12.0762C11.5962 11.7448 11.8648 11.4762 12.1962 11.4762V11.4762C12.5276 11.4762 12.7962 11.7448 12.7962 12.0762L12.7962 14.4762C12.7962 14.8076 12.5276 15.0762 12.1962 15.0762V15.0762Z" fill="#1581FF"/>
<path d="M11.5962 10.3962C11.5962 10.0648 11.8648 9.79617 12.1962 9.79617C12.5276 9.79617 12.7962 10.0648 12.7962 10.3962C12.7962 10.7276 12.5276 10.9962 12.1962 10.9962C11.8648 10.9962 11.5962 10.7276 11.5962 10.3962Z" fill="#1581FF"/>
<path fill-rule="evenodd" clip-rule="evenodd" d="M15.8302 10.0981C15.0806 8.79978 13.6953 8 12.1962 8C10.697 8 9.31178 8.79978 8.56221 10.0981C7.81264 11.3964 7.81264 12.9959 8.56221 14.2942C9.31178 15.5925 10.697 16.3923 12.1962 16.3923C13.6953 16.3923 15.0806 15.5925 15.8302 14.2942C16.5797 12.9959 16.5797 11.3964 15.8302 10.0981ZM16.6962 14.7942C17.6244 13.1865 17.6244 11.2058 16.6962 9.59808C15.768 7.99038 14.0526 7 12.1962 7C10.3398 7 8.62439 7.99038 7.69618 9.59808C6.76798 11.2058 6.76798 13.1865 7.69618 14.7942C8.62438 16.4019 10.3398 17.3923 12.1962 17.3923C14.0526 17.3923 15.768 16.4019 16.6962 14.7942Z" fill="#1581FF"/>
</svg>
