<svg width="16" height="16" viewBox="0 0 16 16" fill="none" xmlns="http://www.w3.org/2000/svg">
<path fill-rule="evenodd" clip-rule="evenodd" d="M8.00008 14.76C8.41491 14.76 8.75119 14.4237 8.75119 14.0089L8.75119 8.75107L14.0088 8.75107C14.4236 8.75107 14.7599 8.41479 14.7599 7.99997C14.7599 7.58514 14.4236 7.24886 14.0088 7.24886L8.75119 7.24886L8.75119 1.9912C8.75119 1.57638 8.41491 1.2401 8.00008 1.2401C7.58526 1.2401 7.24898 1.57638 7.24898 1.9912L7.24898 7.24886L1.99115 7.24886C1.57633 7.24886 1.24005 7.58514 1.24005 7.99997C1.24005 8.41479 1.57633 8.75107 1.99115 8.75107L7.24898 8.75107L7.24898 14.0089C7.24898 14.4237 7.58526 14.76 8.00008 14.76Z" fill="#C6C6C6"/>
</svg>
