<svg width="24" height="24" viewBox="0 0 24 24" fill="none" xmlns="http://www.w3.org/2000/svg">
<path d="M11.4395 13.5793C11.3923 13.2795 11.4002 13.0106 11.4631 12.7723C11.5339 12.5264 11.6283 12.3036 11.7463 12.1037C11.8643 11.8963 11.998 11.7041 12.1475 11.5274C12.3048 11.3506 12.4503 11.1777 12.5841 11.0086C12.7178 10.8319 12.8279 10.6551 12.9145 10.4784C13.0088 10.3016 13.056 10.1095 13.056 9.90202C13.056 9.59462 12.9577 9.33333 12.7611 9.11816C12.5723 8.89529 12.2891 8.78386 11.9115 8.78386C11.6519 8.78386 11.4041 8.84534 11.1681 8.9683C10.94 9.08357 10.7355 9.24496 10.5546 9.45245L10 8.95677C10.2517 8.68012 10.5428 8.45341 10.8732 8.27666C11.2114 8.09222 11.5969 8 12.0295 8C12.6273 8 13.1032 8.16523 13.4572 8.49568C13.8191 8.81844 14 9.26801 14 9.84438C14 10.098 13.9528 10.3285 13.8584 10.536C13.764 10.7435 13.646 10.9395 13.5044 11.1239C13.3707 11.3084 13.2252 11.4928 13.0678 11.6772C12.9184 11.854 12.7768 12.0384 12.6431 12.2305C12.5172 12.4227 12.4189 12.6302 12.3481 12.853C12.2773 13.0682 12.2576 13.3103 12.2891 13.5793H11.4395ZM11.8879 16C11.6912 16 11.5261 15.9347 11.3923 15.804C11.2586 15.6657 11.1917 15.4928 11.1917 15.2853C11.1917 15.0624 11.2586 14.8857 11.3923 14.755C11.5261 14.6167 11.6912 14.5476 11.8879 14.5476C12.0846 14.5476 12.2498 14.6167 12.3835 14.755C12.5251 14.8857 12.5959 15.0624 12.5959 15.2853C12.5959 15.4928 12.5251 15.6657 12.3835 15.804C12.2498 15.9347 12.0846 16 11.8879 16Z" fill="#724CF9"/>
</svg>
