<svg width="4" height="8" viewBox="0 0 4 8" fill="none" xmlns="http://www.w3.org/2000/svg">
<path d="M1.43953 5.57925C1.39233 5.27954 1.4002 5.01057 1.46313 4.77233C1.53392 4.52642 1.62832 4.30355 1.74631 4.10375C1.86431 3.89625 1.99803 3.70413 2.14749 3.52738C2.30482 3.35062 2.45034 3.17771 2.58407 3.00865C2.7178 2.83189 2.82793 2.65514 2.91445 2.47839C3.00885 2.30163 3.05605 2.10951 3.05605 1.90202C3.05605 1.59462 2.95772 1.33333 2.76106 1.11816C2.57227 0.895293 2.28909 0.783862 1.9115 0.783862C1.65192 0.783862 1.40413 0.845341 1.16814 0.9683C0.94002 1.08357 0.735497 1.24496 0.554572 1.45245L0 0.956772C0.251721 0.680115 0.542773 0.45341 0.873156 0.276657C1.21141 0.092219 1.59685 0 2.0295 0C2.62734 0 3.10325 0.165226 3.45723 0.495677C3.81908 0.818444 4 1.26801 4 1.84438C4 2.09798 3.9528 2.32853 3.85841 2.53602C3.76401 2.74352 3.64602 2.93948 3.50443 3.12392C3.3707 3.30836 3.22517 3.4928 3.06785 3.67723C2.91839 3.85399 2.77679 4.03842 2.64307 4.23055C2.51721 4.42267 2.41888 4.63016 2.34808 4.85303C2.27729 5.0682 2.25762 5.31028 2.28909 5.57925H1.43953ZM1.88791 8C1.69125 8 1.52606 7.93468 1.39233 7.80404C1.2586 7.66571 1.19174 7.4928 1.19174 7.2853C1.19174 7.06244 1.2586 6.88569 1.39233 6.75504C1.52606 6.61672 1.69125 6.54755 1.88791 6.54755C2.08456 6.54755 2.24975 6.61672 2.38348 6.75504C2.52507 6.88569 2.59587 7.06244 2.59587 7.2853C2.59587 7.4928 2.52507 7.66571 2.38348 7.80404C2.24975 7.93468 2.08456 8 1.88791 8Z" fill="#724CF9"/>
</svg>
